<?xml version="1.0" encoding="UTF-8"?>
<!-- Generated by Pixelmator Pro 4.2 -->
<svg width="200" height="200" viewBox="0 0 200 200" xmlns="http://www.w3.org/2000/svg">
    <g id="Group">
        <path id="Path" fill="#000000" stroke="none" d="M 166.906479 140.88768 C 168.309555 160.952576 155.025253 178.226868 137.233963 179.470963 L 72.807968 183.976074 C 55.01807 185.220062 39.457535 169.962784 38.054462 149.897888 L 29.797815 31.822342 C 29.446999 26.80542 32.767727 22.486862 37.216587 22.175781 L 125.801651 15.981308 C 143.592941 14.737213 159.152084 29.994583 160.555161 50.059464 L 166.906479 140.88768 Z M 152.411331 141.901276 C 152.797119 147.418365 151.396027 152.250092 148.209244 156.3936 C 145.022461 160.537109 140.984344 162.779816 136.090729 163.122009 L 71.664734 167.627106 C 66.772507 167.969208 62.460182 166.310425 58.727749 162.650757 C 54.995316 158.991089 52.936798 154.401276 52.551006 148.884201 L 44.802418 38.074234 L 126.944885 32.330261 C 131.837112 31.988174 136.149445 33.646942 139.881866 37.306625 C 143.614304 40.966278 145.67421 45.555984 146.059998 51.073074 L 152.411331 141.901276 Z"/>
        <path id="path1" fill="#000000" stroke="none" d="M 132.421432 55.894531 L 61.760647 60.835617 C 58.31728 61.076401 55.721069 64.063004 55.961853 67.506363 C 56.202637 70.949738 59.189236 73.545944 62.632603 73.305161 L 133.293381 68.364075 C 136.736771 68.123291 139.332962 65.136703 139.092178 61.693329 C 138.851395 58.249969 135.864822 55.653748 132.421432 55.894531 Z M 109.226242 82.577538 L 63.504559 85.774712 C 60.061192 86.015495 57.464981 89.002098 57.705765 92.445465 C 57.946548 95.88884 60.933147 98.485046 64.376511 98.244263 L 110.098198 95.047089 C 113.54158 94.806305 116.137779 91.81971 115.896996 88.376335 C 115.656212 84.932976 112.669624 82.336754 109.226242 82.577538 Z"/>
    </g>
</svg>
